<mxfile host="app.diagrams.net" modified="2021-03-05T10:06:46.775Z" agent="5.0 (Windows NT 10.0; Win64; x64) AppleWebKit/537.36 (KHTML, like Gecko) Chrome/88.0.4324.190 Safari/537.36" etag="fKqwR3NSU7NaDkT2Ib5f" version="14.4.3" type="github">
  <diagram id="R2_pSh5JJo0l666pBgDL" name="第 1 页">
    <mxGraphModel dx="1422" dy="802" grid="1" gridSize="10" guides="1" tooltips="1" connect="1" arrows="1" fold="1" page="1" pageScale="1" pageWidth="1169" pageHeight="827" math="0" shadow="0">
      <root>
        <mxCell id="0" />
        <mxCell id="1" parent="0" />
        <mxCell id="V5jk9wduK8HiyWuCzGLO-44" value="" style="shape=table;html=1;whiteSpace=wrap;startSize=0;container=1;collapsible=0;childLayout=tableLayout;fillColor=#dae8fc;strokeColor=#6c8ebf;" vertex="1" parent="1">
          <mxGeometry x="430" y="135" width="90" height="90" as="geometry" />
        </mxCell>
        <mxCell id="V5jk9wduK8HiyWuCzGLO-45" value="" style="shape=partialRectangle;html=1;whiteSpace=wrap;collapsible=0;dropTarget=0;pointerEvents=0;fillColor=none;top=0;left=0;bottom=0;right=0;points=[[0,0.5],[1,0.5]];portConstraint=eastwest;" vertex="1" parent="V5jk9wduK8HiyWuCzGLO-44">
          <mxGeometry width="90" height="30" as="geometry" />
        </mxCell>
        <mxCell id="V5jk9wduK8HiyWuCzGLO-46" value="1" style="shape=partialRectangle;html=1;whiteSpace=wrap;connectable=0;overflow=hidden;fillColor=none;top=0;left=0;bottom=0;right=0;" vertex="1" parent="V5jk9wduK8HiyWuCzGLO-45">
          <mxGeometry width="30" height="30" as="geometry" />
        </mxCell>
        <mxCell id="V5jk9wduK8HiyWuCzGLO-47" value="0" style="shape=partialRectangle;html=1;whiteSpace=wrap;connectable=0;overflow=hidden;fillColor=none;top=0;left=0;bottom=0;right=0;" vertex="1" parent="V5jk9wduK8HiyWuCzGLO-45">
          <mxGeometry x="30" width="30" height="30" as="geometry" />
        </mxCell>
        <mxCell id="V5jk9wduK8HiyWuCzGLO-48" value="1" style="shape=partialRectangle;html=1;whiteSpace=wrap;connectable=0;overflow=hidden;fillColor=none;top=0;left=0;bottom=0;right=0;" vertex="1" parent="V5jk9wduK8HiyWuCzGLO-45">
          <mxGeometry x="60" width="30" height="30" as="geometry" />
        </mxCell>
        <mxCell id="V5jk9wduK8HiyWuCzGLO-49" value="" style="shape=partialRectangle;html=1;whiteSpace=wrap;collapsible=0;dropTarget=0;pointerEvents=0;fillColor=none;top=0;left=0;bottom=0;right=0;points=[[0,0.5],[1,0.5]];portConstraint=eastwest;" vertex="1" parent="V5jk9wduK8HiyWuCzGLO-44">
          <mxGeometry y="30" width="90" height="30" as="geometry" />
        </mxCell>
        <mxCell id="V5jk9wduK8HiyWuCzGLO-50" value="0" style="shape=partialRectangle;html=1;whiteSpace=wrap;connectable=0;overflow=hidden;fillColor=none;top=0;left=0;bottom=0;right=0;" vertex="1" parent="V5jk9wduK8HiyWuCzGLO-49">
          <mxGeometry width="30" height="30" as="geometry" />
        </mxCell>
        <mxCell id="V5jk9wduK8HiyWuCzGLO-51" value="1" style="shape=partialRectangle;html=1;whiteSpace=wrap;connectable=0;overflow=hidden;fillColor=none;top=0;left=0;bottom=0;right=0;" vertex="1" parent="V5jk9wduK8HiyWuCzGLO-49">
          <mxGeometry x="30" width="30" height="30" as="geometry" />
        </mxCell>
        <mxCell id="V5jk9wduK8HiyWuCzGLO-52" value="0" style="shape=partialRectangle;html=1;whiteSpace=wrap;connectable=0;overflow=hidden;fillColor=none;top=0;left=0;bottom=0;right=0;" vertex="1" parent="V5jk9wduK8HiyWuCzGLO-49">
          <mxGeometry x="60" width="30" height="30" as="geometry" />
        </mxCell>
        <mxCell id="V5jk9wduK8HiyWuCzGLO-53" value="" style="shape=partialRectangle;html=1;whiteSpace=wrap;collapsible=0;dropTarget=0;pointerEvents=0;fillColor=none;top=0;left=0;bottom=0;right=0;points=[[0,0.5],[1,0.5]];portConstraint=eastwest;" vertex="1" parent="V5jk9wduK8HiyWuCzGLO-44">
          <mxGeometry y="60" width="90" height="30" as="geometry" />
        </mxCell>
        <mxCell id="V5jk9wduK8HiyWuCzGLO-54" value="1" style="shape=partialRectangle;html=1;whiteSpace=wrap;connectable=0;overflow=hidden;fillColor=none;top=0;left=0;bottom=0;right=0;" vertex="1" parent="V5jk9wduK8HiyWuCzGLO-53">
          <mxGeometry width="30" height="30" as="geometry" />
        </mxCell>
        <mxCell id="V5jk9wduK8HiyWuCzGLO-55" value="0" style="shape=partialRectangle;html=1;whiteSpace=wrap;connectable=0;overflow=hidden;fillColor=none;top=0;left=0;bottom=0;right=0;" vertex="1" parent="V5jk9wduK8HiyWuCzGLO-53">
          <mxGeometry x="30" width="30" height="30" as="geometry" />
        </mxCell>
        <mxCell id="V5jk9wduK8HiyWuCzGLO-56" value="1" style="shape=partialRectangle;html=1;whiteSpace=wrap;connectable=0;overflow=hidden;fillColor=none;top=0;left=0;bottom=0;right=0;" vertex="1" parent="V5jk9wduK8HiyWuCzGLO-53">
          <mxGeometry x="60" width="30" height="30" as="geometry" />
        </mxCell>
        <mxCell id="V5jk9wduK8HiyWuCzGLO-57" value="" style="shape=table;html=1;whiteSpace=wrap;startSize=0;container=1;collapsible=0;childLayout=tableLayout;fillColor=#ffe6cc;strokeColor=#d79b00;" vertex="1" parent="1">
          <mxGeometry x="250" y="120" width="120" height="120" as="geometry" />
        </mxCell>
        <mxCell id="V5jk9wduK8HiyWuCzGLO-58" value="" style="shape=partialRectangle;html=1;whiteSpace=wrap;collapsible=0;dropTarget=0;pointerEvents=0;fillColor=none;top=0;left=0;bottom=0;right=0;points=[[0,0.5],[1,0.5]];portConstraint=eastwest;" vertex="1" parent="V5jk9wduK8HiyWuCzGLO-57">
          <mxGeometry width="120" height="30" as="geometry" />
        </mxCell>
        <mxCell id="V5jk9wduK8HiyWuCzGLO-59" value="1" style="shape=partialRectangle;html=1;whiteSpace=wrap;connectable=0;overflow=hidden;fillColor=none;top=0;left=0;bottom=0;right=0;" vertex="1" parent="V5jk9wduK8HiyWuCzGLO-58">
          <mxGeometry width="30" height="30" as="geometry" />
        </mxCell>
        <mxCell id="V5jk9wduK8HiyWuCzGLO-60" value="1" style="shape=partialRectangle;html=1;whiteSpace=wrap;connectable=0;overflow=hidden;fillColor=none;top=0;left=0;bottom=0;right=0;" vertex="1" parent="V5jk9wduK8HiyWuCzGLO-58">
          <mxGeometry x="30" width="30" height="30" as="geometry" />
        </mxCell>
        <mxCell id="V5jk9wduK8HiyWuCzGLO-61" value="1" style="shape=partialRectangle;html=1;whiteSpace=wrap;connectable=0;overflow=hidden;fillColor=none;top=0;left=0;bottom=0;right=0;" vertex="1" parent="V5jk9wduK8HiyWuCzGLO-58">
          <mxGeometry x="60" width="30" height="30" as="geometry" />
        </mxCell>
        <mxCell id="V5jk9wduK8HiyWuCzGLO-62" value="0" style="shape=partialRectangle;html=1;whiteSpace=wrap;connectable=0;overflow=hidden;fillColor=none;top=0;left=0;bottom=0;right=0;" vertex="1" parent="V5jk9wduK8HiyWuCzGLO-58">
          <mxGeometry x="90" width="30" height="30" as="geometry" />
        </mxCell>
        <mxCell id="V5jk9wduK8HiyWuCzGLO-63" value="" style="shape=partialRectangle;html=1;whiteSpace=wrap;collapsible=0;dropTarget=0;pointerEvents=0;fillColor=none;top=0;left=0;bottom=0;right=0;points=[[0,0.5],[1,0.5]];portConstraint=eastwest;" vertex="1" parent="V5jk9wduK8HiyWuCzGLO-57">
          <mxGeometry y="30" width="120" height="30" as="geometry" />
        </mxCell>
        <mxCell id="V5jk9wduK8HiyWuCzGLO-64" value="0" style="shape=partialRectangle;html=1;whiteSpace=wrap;connectable=0;overflow=hidden;fillColor=none;top=0;left=0;bottom=0;right=0;" vertex="1" parent="V5jk9wduK8HiyWuCzGLO-63">
          <mxGeometry width="30" height="30" as="geometry" />
        </mxCell>
        <mxCell id="V5jk9wduK8HiyWuCzGLO-65" value="1" style="shape=partialRectangle;html=1;whiteSpace=wrap;connectable=0;overflow=hidden;fillColor=none;top=0;left=0;bottom=0;right=0;" vertex="1" parent="V5jk9wduK8HiyWuCzGLO-63">
          <mxGeometry x="30" width="30" height="30" as="geometry" />
        </mxCell>
        <mxCell id="V5jk9wduK8HiyWuCzGLO-66" value="1" style="shape=partialRectangle;html=1;whiteSpace=wrap;connectable=0;overflow=hidden;fillColor=none;top=0;left=0;bottom=0;right=0;" vertex="1" parent="V5jk9wduK8HiyWuCzGLO-63">
          <mxGeometry x="60" width="30" height="30" as="geometry" />
        </mxCell>
        <mxCell id="V5jk9wduK8HiyWuCzGLO-67" value="1" style="shape=partialRectangle;html=1;whiteSpace=wrap;connectable=0;overflow=hidden;fillColor=none;top=0;left=0;bottom=0;right=0;" vertex="1" parent="V5jk9wduK8HiyWuCzGLO-63">
          <mxGeometry x="90" width="30" height="30" as="geometry" />
        </mxCell>
        <mxCell id="V5jk9wduK8HiyWuCzGLO-68" value="" style="shape=partialRectangle;html=1;whiteSpace=wrap;collapsible=0;dropTarget=0;pointerEvents=0;fillColor=none;top=0;left=0;bottom=0;right=0;points=[[0,0.5],[1,0.5]];portConstraint=eastwest;" vertex="1" parent="V5jk9wduK8HiyWuCzGLO-57">
          <mxGeometry y="60" width="120" height="30" as="geometry" />
        </mxCell>
        <mxCell id="V5jk9wduK8HiyWuCzGLO-69" value="0" style="shape=partialRectangle;html=1;whiteSpace=wrap;connectable=0;overflow=hidden;fillColor=none;top=0;left=0;bottom=0;right=0;" vertex="1" parent="V5jk9wduK8HiyWuCzGLO-68">
          <mxGeometry width="30" height="30" as="geometry" />
        </mxCell>
        <mxCell id="V5jk9wduK8HiyWuCzGLO-70" value="0" style="shape=partialRectangle;html=1;whiteSpace=wrap;connectable=0;overflow=hidden;fillColor=none;top=0;left=0;bottom=0;right=0;" vertex="1" parent="V5jk9wduK8HiyWuCzGLO-68">
          <mxGeometry x="30" width="30" height="30" as="geometry" />
        </mxCell>
        <mxCell id="V5jk9wduK8HiyWuCzGLO-71" value="1" style="shape=partialRectangle;html=1;whiteSpace=wrap;connectable=0;overflow=hidden;fillColor=none;top=0;left=0;bottom=0;right=0;" vertex="1" parent="V5jk9wduK8HiyWuCzGLO-68">
          <mxGeometry x="60" width="30" height="30" as="geometry" />
        </mxCell>
        <mxCell id="V5jk9wduK8HiyWuCzGLO-72" value="1" style="shape=partialRectangle;html=1;whiteSpace=wrap;connectable=0;overflow=hidden;fillColor=none;top=0;left=0;bottom=0;right=0;" vertex="1" parent="V5jk9wduK8HiyWuCzGLO-68">
          <mxGeometry x="90" width="30" height="30" as="geometry" />
        </mxCell>
        <mxCell id="V5jk9wduK8HiyWuCzGLO-73" value="" style="shape=partialRectangle;html=1;whiteSpace=wrap;collapsible=0;dropTarget=0;pointerEvents=0;fillColor=none;top=0;left=0;bottom=0;right=0;points=[[0,0.5],[1,0.5]];portConstraint=eastwest;" vertex="1" parent="V5jk9wduK8HiyWuCzGLO-57">
          <mxGeometry y="90" width="120" height="30" as="geometry" />
        </mxCell>
        <mxCell id="V5jk9wduK8HiyWuCzGLO-74" value="0" style="shape=partialRectangle;html=1;whiteSpace=wrap;connectable=0;overflow=hidden;fillColor=none;top=0;left=0;bottom=0;right=0;" vertex="1" parent="V5jk9wduK8HiyWuCzGLO-73">
          <mxGeometry width="30" height="30" as="geometry" />
        </mxCell>
        <mxCell id="V5jk9wduK8HiyWuCzGLO-75" value="0" style="shape=partialRectangle;html=1;whiteSpace=wrap;connectable=0;overflow=hidden;fillColor=none;top=0;left=0;bottom=0;right=0;" vertex="1" parent="V5jk9wduK8HiyWuCzGLO-73">
          <mxGeometry x="30" width="30" height="30" as="geometry" />
        </mxCell>
        <mxCell id="V5jk9wduK8HiyWuCzGLO-76" value="1" style="shape=partialRectangle;html=1;whiteSpace=wrap;connectable=0;overflow=hidden;fillColor=none;top=0;left=0;bottom=0;right=0;" vertex="1" parent="V5jk9wduK8HiyWuCzGLO-73">
          <mxGeometry x="60" width="30" height="30" as="geometry" />
        </mxCell>
        <mxCell id="V5jk9wduK8HiyWuCzGLO-77" value="1" style="shape=partialRectangle;html=1;whiteSpace=wrap;connectable=0;overflow=hidden;fillColor=none;top=0;left=0;bottom=0;right=0;" vertex="1" parent="V5jk9wduK8HiyWuCzGLO-73">
          <mxGeometry x="90" width="30" height="30" as="geometry" />
        </mxCell>
        <mxCell id="V5jk9wduK8HiyWuCzGLO-78" value="&lt;font style=&quot;font-size: 35px&quot;&gt;*&lt;/font&gt;" style="text;html=1;align=center;verticalAlign=middle;resizable=0;points=[];autosize=1;" vertex="1" parent="1">
          <mxGeometry x="385" y="172" width="30" height="30" as="geometry" />
        </mxCell>
        <mxCell id="V5jk9wduK8HiyWuCzGLO-79" value="&lt;font style=&quot;font-size: 35px&quot;&gt;=&lt;/font&gt;" style="text;html=1;align=center;verticalAlign=middle;resizable=0;points=[];autosize=1;" vertex="1" parent="1">
          <mxGeometry x="550" y="165" width="40" height="30" as="geometry" />
        </mxCell>
        <mxCell id="V5jk9wduK8HiyWuCzGLO-80" value="" style="shape=table;html=1;whiteSpace=wrap;startSize=0;container=1;collapsible=0;childLayout=tableLayout;fillColor=#d5e8d4;strokeColor=#82b366;" vertex="1" parent="1">
          <mxGeometry x="610" y="150" width="60" height="60" as="geometry" />
        </mxCell>
        <mxCell id="V5jk9wduK8HiyWuCzGLO-81" value="" style="shape=partialRectangle;html=1;whiteSpace=wrap;collapsible=0;dropTarget=0;pointerEvents=0;fillColor=none;top=0;left=0;bottom=0;right=0;points=[[0,0.5],[1,0.5]];portConstraint=eastwest;" vertex="1" parent="V5jk9wduK8HiyWuCzGLO-80">
          <mxGeometry width="60" height="30" as="geometry" />
        </mxCell>
        <mxCell id="V5jk9wduK8HiyWuCzGLO-82" value="4" style="shape=partialRectangle;html=1;whiteSpace=wrap;connectable=0;overflow=hidden;fillColor=none;top=0;left=0;bottom=0;right=0;" vertex="1" parent="V5jk9wduK8HiyWuCzGLO-81">
          <mxGeometry width="30" height="30" as="geometry" />
        </mxCell>
        <mxCell id="V5jk9wduK8HiyWuCzGLO-83" value="3" style="shape=partialRectangle;html=1;whiteSpace=wrap;connectable=0;overflow=hidden;fillColor=none;top=0;left=0;bottom=0;right=0;" vertex="1" parent="V5jk9wduK8HiyWuCzGLO-81">
          <mxGeometry x="30" width="30" height="30" as="geometry" />
        </mxCell>
        <mxCell id="V5jk9wduK8HiyWuCzGLO-84" value="" style="shape=partialRectangle;html=1;whiteSpace=wrap;collapsible=0;dropTarget=0;pointerEvents=0;fillColor=none;top=0;left=0;bottom=0;right=0;points=[[0,0.5],[1,0.5]];portConstraint=eastwest;" vertex="1" parent="V5jk9wduK8HiyWuCzGLO-80">
          <mxGeometry y="30" width="60" height="30" as="geometry" />
        </mxCell>
        <mxCell id="V5jk9wduK8HiyWuCzGLO-85" value="2" style="shape=partialRectangle;html=1;whiteSpace=wrap;connectable=0;overflow=hidden;fillColor=none;top=0;left=0;bottom=0;right=0;" vertex="1" parent="V5jk9wduK8HiyWuCzGLO-84">
          <mxGeometry width="30" height="30" as="geometry" />
        </mxCell>
        <mxCell id="V5jk9wduK8HiyWuCzGLO-86" value="4" style="shape=partialRectangle;html=1;whiteSpace=wrap;connectable=0;overflow=hidden;fillColor=none;top=0;left=0;bottom=0;right=0;" vertex="1" parent="V5jk9wduK8HiyWuCzGLO-84">
          <mxGeometry x="30" width="30" height="30" as="geometry" />
        </mxCell>
      </root>
    </mxGraphModel>
  </diagram>
</mxfile>
